<?xml version="1.0" standalone="no"?>
<!DOCTYPE svg PUBLIC "-//W3C//DTD SVG 20010904//EN"
 "http://www.w3.org/TR/2001/REC-SVG-20010904/DTD/svg10.dtd">
<svg version="1.0" xmlns="http://www.w3.org/2000/svg"
 width="1280.000000pt" height="854.000000pt" viewBox="0 0 1280.000000 854.000000"
 preserveAspectRatio="xMidYMid meet">

<g transform="translate(0.000000,854.000000) scale(0.100000,-0.100000)"
fill="#000000" stroke="none">
<path d="M2423 8510 c-24 -29 -30 -45 -13 -35 14 9 52 65 43 64 -4 0 -18 -13
-30 -29z"/>
<path d="M10816 8528 c-2 -7 -6 -22 -9 -33 -3 -11 -8 -27 -11 -36 -7 -16 44
-79 64 -79 6 0 10 -7 10 -15 0 -8 4 -15 8 -15 9 0 34 -62 27 -68 -2 -3 -25 1
-51 7 -53 14 -64 9 -41 -17 10 -10 17 -22 17 -27 0 -4 11 -22 23 -39 33 -43
77 -134 77 -157 0 -19 -14 -20 -67 -3 -7 2 -13 -3 -13 -11 0 -11 -11 -13 -50
-9 -43 5 -49 3 -44 -10 8 -21 -5 -20 -28 1 -17 15 -20 15 -28 3 -14 -22 -14
-24 37 -73 35 -34 74 -57 157 -92 151 -63 236 -105 236 -115 0 -4 -15 -20 -32
-34 -79 -62 -79 -59 -22 -71 31 -6 66 -22 90 -42 34 -27 37 -34 27 -51 -10
-17 -7 -22 27 -43 28 -18 35 -27 28 -36 -8 -10 -6 -13 8 -13 12 0 15 -3 8 -10
-13 -13 -219 3 -299 24 -32 9 -75 16 -94 16 -57 0 -147 -30 -183 -62 l-33 -29
45 5 c30 4 65 0 103 -12 l59 -19 -61 -17 c-34 -9 -61 -21 -61 -27 0 -18 125
-9 214 16 49 14 94 21 100 17 6 -5 31 -14 56 -21 58 -15 90 -32 90 -45 0 -23
-19 -38 -57 -46 -173 -39 -470 -82 -558 -80 -64 1 -72 -1 -93 -25 -32 -37 -47
-28 -46 31 1 45 3 49 28 52 14 2 26 8 26 14 0 14 -116 -9 -147 -30 -23 -15 96
-308 179 -442 l28 -44 12 32 c7 18 16 32 19 32 14 0 21 -108 17 -243 -3 -75
-2 -141 2 -148 5 -6 19 24 35 72 29 89 61 134 90 123 11 -5 15 -14 12 -30 -2
-13 0 -21 4 -18 5 3 9 11 9 18 0 7 10 21 21 32 21 19 21 19 16 -11 -20 -104
-19 -175 3 -175 10 0 19 87 25 241 2 64 7 134 11 155 l8 39 7 -50 c4 -27 8
-71 8 -97 1 -26 5 -49 11 -53 12 -8 34 38 50 102 6 29 18 57 25 63 16 13 29
-40 41 -158 6 -69 16 -82 27 -37 6 26 1 -155 -8 -275 l-8 -95 94 -61 c98 -64
210 -124 230 -124 12 0 10 65 -10 255 -4 44 -4 84 1 89 4 6 8 8 8 5 0 -2 5
-31 10 -64 5 -33 12 -84 16 -113 5 -53 42 -171 43 -141 1 24 31 33 31 10 0
-46 11 -51 37 -20 18 22 25 41 25 71 -1 47 10 41 28 -16 9 -28 15 -35 21 -25
13 21 11 93 -4 125 -40 89 -83 129 -71 66 5 -23 0 -30 -29 -46 -20 -10 -40
-15 -46 -12 -18 11 -13 84 10 135 l20 49 -29 53 c-17 30 -44 79 -62 109 -73
130 -109 244 -42 135 16 -27 43 -65 58 -83 32 -39 44 -30 43 33 -2 74 -10 89
-60 101 -100 25 -140 72 -124 144 11 49 87 72 100 30 8 -26 15 -25 48 5 30 29
33 23 13 -27 -30 -71 24 -105 124 -78 32 9 64 33 139 108 53 53 103 112 110
130 8 17 17 32 22 32 5 0 9 6 9 13 0 8 17 13 49 14 67 1 88 -20 71 -71 -14
-44 2 -66 49 -66 25 0 32 5 37 28 8 30 22 52 35 52 12 0 119 -227 119 -251 0
-32 -42 -22 -116 27 -38 26 -82 57 -97 70 -16 13 -33 24 -38 24 -20 0 -52 -85
-51 -135 1 -38 -2 -46 -9 -32 -17 29 -32 19 -84 -54 -27 -39 -63 -87 -78 -107
-62 -80 -62 -76 -3 -213 30 -68 81 -182 113 -254 33 -71 72 -157 86 -190 14
-33 30 -60 36 -60 5 0 28 17 50 38 23 21 41 35 41 31 0 -3 24 19 53 50 61 65
77 110 77 215 l0 70 -52 25 c-87 42 -236 151 -224 163 5 5 48 -16 56 -27 3 -3
34 -17 70 -29 36 -13 74 -27 85 -32 80 -35 86 -33 106 43 10 36 10 63 1 120
-6 40 -9 74 -6 77 2 2 19 -12 36 -33 18 -20 50 -55 70 -77 40 -43 54 -89 45
-144 -6 -38 6 -45 81 -45 58 0 115 -24 110 -47 -4 -20 -58 -31 -164 -32 -37
-1 -65 -6 -71 -13 -14 -18 -46 -128 -40 -134 3 -3 18 1 34 10 15 8 39 20 52
26 13 6 31 18 38 28 8 9 6 2 -4 -16 -10 -18 -39 -47 -64 -65 -26 -18 -61 -52
-78 -77 -17 -25 -57 -71 -89 -104 l-57 -59 170 6 c94 4 179 8 190 11 11 2 28
5 38 5 14 1 17 6 12 21 -8 24 -7 24 41 4 70 -29 75 -28 72 19 l-3 42 58 3 c55
3 58 4 51 25 -4 15 13 3 55 -38 52 -50 61 -56 61 -37 0 12 5 22 10 22 6 0 10
17 10 38 0 35 -8 47 -82 122 -46 46 -90 93 -98 105 -33 50 -141 167 -269 293
-109 106 -133 134 -121 142 23 15 25 14 109 -43 48 -33 106 -62 152 -76 41
-13 79 -27 84 -31 11 -7 83 -26 128 -33 16 -3 44 0 63 6 33 10 34 12 34 64 l0
53 -55 0 c-30 0 -55 5 -55 10 0 6 15 10 33 10 59 0 77 10 77 41 0 29 -14 36
-59 30 -7 -2 -20 0 -29 4 -14 5 -14 7 -2 16 12 7 11 9 -5 7 -11 0 -31 0 -45 1
-23 1 -23 3 -7 12 10 6 28 8 40 5 11 -3 40 -2 64 1 l43 6 0 47 0 48 -72 43
c-79 47 -171 126 -162 140 3 5 -5 10 -18 10 -20 1 -21 2 -3 6 11 3 27 11 35
18 18 16 107 -1 136 -26 11 -9 34 -26 52 -38 l32 -22 0 475 c0 396 -2 476 -14
476 -7 0 -26 10 -41 22 -24 19 -46 23 -169 29 -77 4 -145 8 -151 8 -16 1 68
83 100 96 37 16 136 22 156 9 17 -10 109 -54 115 -54 2 0 4 45 4 100 0 84 -3
100 -16 100 -8 0 -12 5 -9 10 4 6 10 8 14 6 4 -3 9 64 10 149 l2 155 -135 0
-134 0 -12 -35 c-21 -65 -18 -68 119 -87 68 -9 126 -20 129 -23 3 -3 1 -10 -6
-17 -8 -8 -42 -8 -131 1 -67 7 -125 10 -130 7 -4 -3 -21 -40 -36 -83 -16 -43
-42 -100 -59 -128 -27 -43 -31 -47 -34 -27 -2 12 -7 20 -12 17 -5 -3 -15 16
-22 41 -7 26 -17 47 -23 48 -5 0 -19 -18 -30 -41 -17 -38 -22 -42 -48 -37 -22
3 -30 0 -34 -15 -3 -10 -17 -21 -31 -25 -15 -3 -37 -8 -50 -12 -13 -4 -22 -3
-21 2 5 28 -2 36 -27 31 -24 -4 -25 -3 -21 33 4 38 4 38 -27 35 -31 -3 -292
-88 -303 -98 -6 -7 22 -48 103 -150 66 -81 202 -342 243 -464 34 -101 21 -214
-26 -221 -13 -2 -24 -13 -28 -29 -6 -25 -17 -25 -21 0 -5 32 -37 145 -56 196
-35 96 -204 432 -262 521 -31 47 -56 88 -56 93 0 15 -30 6 -109 -34 -63 -32
-85 -39 -94 -30 -18 18 1 39 72 82 35 21 68 40 73 41 16 6 -14 57 -56 97 -39
38 -45 61 -21 81 24 20 55 0 111 -69 27 -33 55 -60 63 -60 8 -1 75 19 150 43
75 25 168 54 208 65 71 21 123 61 123 97 0 17 -5 17 -30 2 -17 -11 -22 -10
-30 2 -17 26 -11 50 14 60 13 4 26 20 30 33 3 14 9 32 12 41 5 13 -1 16 -34
16 -38 0 -40 -1 -46 -40 -3 -22 -10 -39 -14 -39 -19 3 -34 -4 -90 -45 -60 -44
-102 -52 -102 -20 0 8 -5 14 -11 14 -5 0 -7 5 -4 10 3 6 14 10 24 10 25 0 37
18 45 68 l6 42 -300 0 c-165 0 -300 -3 -300 -7 0 -5 -7 -45 -14 -90 -15 -82
-15 -82 15 -168 16 -48 29 -95 29 -105 0 -10 4 -21 9 -24 5 -3 -4 -20 -20 -37
-16 -17 -29 -35 -29 -40 0 -16 -22 -10 -56 16 -18 14 -37 25 -42 25 -5 0 -15
12 -22 26 -10 19 -20 24 -37 21 -26 -5 -33 9 -33 66 0 47 -15 83 -23 57 -3 -8
-16 -44 -28 -80 l-24 -65 -3 48 c-2 26 4 72 12 100 21 73 29 154 19 207 l-9
45 -71 2 -72 2 -7 -45 c-7 -51 -21 -47 -26 6 -3 30 -7 35 -31 38 -16 2 -29 -2
-31 -10z m1364 -478 c10 -24 10 -69 1 -223 -13 -204 -16 -227 -33 -227 -6 0
-9 80 -6 240 3 244 9 279 38 210z m-1390 -95 c0 -8 -4 -15 -10 -15 -5 0 -10 7
-10 15 0 8 5 15 10 15 6 0 10 -7 10 -15z m1840 -205 c0 -23 -9 -36 -45 -62
-24 -18 -47 -40 -50 -48 -3 -9 -25 -38 -50 -65 l-44 -50 0 35 c-1 19 3 41 8
49 7 10 5 18 -5 26 -24 17 -7 43 65 95 80 60 121 66 121 20z m-816 -465 c5
-45 2 -63 -14 -96 -12 -22 -24 -37 -29 -35 -8 5 -22 68 -36 159 -6 35 -4 38
13 33 13 -5 22 -1 27 11 6 17 7 17 19 0 7 -9 16 -42 20 -72z m786 -27 c0 -25
-74 -164 -107 -201 -20 -22 -33 -48 -33 -65 -1 -15 -8 -38 -16 -52 -15 -24
-15 -24 -10 20 11 96 23 127 75 193 28 37 56 78 61 92 10 26 30 34 30 13z"/>
<path d="M12220 8520 c0 -11 2 -20 4 -20 2 0 6 9 9 20 3 11 1 20 -4 20 -5 0
-9 -9 -9 -20z"/>
<path d="M12412 8495 c-12 -25 -22 -48 -22 -50 0 -3 12 -5 28 -5 24 0 29 6 43
50 15 49 15 50 -6 50 -15 0 -27 -13 -43 -45z"/>
<path d="M10460 8512 c0 -12 -16 -37 -35 -56 -30 -30 -39 -34 -72 -30 -72 10
-116 2 -77 -13 10 -4 24 -11 29 -15 6 -5 20 -17 33 -27 12 -10 37 -24 55 -31
17 -7 53 -23 78 -36 58 -30 59 -30 59 4 0 36 14 56 34 49 9 -4 16 -3 16 0 0
14 -79 139 -99 157 -21 19 -21 19 -21 -2z"/>
<path d="M2521 8491 c-12 -16 -21 -34 -21 -41 0 -6 -3 -9 -8 -6 -4 2 -27 -13
-52 -35 -25 -21 -38 -39 -30 -39 20 0 112 79 105 90 -3 5 1 12 9 17 8 4 16 13
18 18 2 6 7 9 11 7 5 -1 6 2 2 8 -9 14 -11 13 -34 -19z"/>
<path d="M3161 8486 c-23 -24 -23 -25 -2 -19 23 6 28 -6 9 -26 -11 -10 -8 -11
14 -7 17 3 28 -1 32 -10 3 -8 12 -14 21 -14 18 0 19 -11 3 -30 -7 -8 2 -2 20
14 17 17 32 33 32 37 0 6 -95 79 -103 79 -2 0 -14 -11 -26 -24z"/>
<path d="M2829 8483 c-13 -16 -12 -17 4 -4 9 7 17 15 17 17 0 8 -8 3 -21 -13z"/>
<path d="M10760 8461 c0 -17 18 -21 24 -6 3 9 0 15 -9 15 -8 0 -15 -4 -15 -9z"/>
<path d="M2330 8430 c-9 -6 -10 -10 -3 -10 6 0 15 5 18 10 8 12 4 12 -15 0z"/>
<path d="M2793 8394 c10 -11 -24 -62 -46 -68 -10 -2 -16 -9 -12 -16 4 -6 1 -9
-7 -8 -7 2 -12 -2 -11 -9 1 -6 -4 -17 -12 -23 -8 -7 -15 -17 -15 -23 0 -15 56
40 95 95 29 40 31 47 17 53 -9 3 -13 3 -9 -1z"/>
<path d="M12377 8383 c-11 -10 -8 -43 3 -43 9 0 30 31 30 44 0 8 -25 7 -33 -1z"/>
<path d="M3199 8343 c-13 -16 -12 -17 4 -4 16 13 21 21 13 21 -2 0 -10 -8 -17
-17z"/>
<path d="M3465 8270 c-17 -19 -17 -20 0 -20 17 0 17 -1 0 -20 -18 -20 -18 -20
1 -18 31 3 85 -25 79 -41 -5 -11 -3 -12 10 -1 38 32 36 45 -15 83 -27 20 -51
37 -53 37 -2 0 -12 -9 -22 -20z"/>
<path d="M10337 8253 c-3 -15 -16 -82 -30 -148 -38 -185 -42 -233 -21 -256 9
-10 24 -19 33 -19 10 0 12 -3 5 -10 -7 -7 -20 -7 -35 -2 -28 10 -59 5 -59 -9
0 -6 4 -8 9 -5 5 4 20 -7 34 -23 17 -21 23 -37 19 -60 -4 -29 -24 -42 -36 -22
-3 5 -22 12 -42 15 -25 5 -34 11 -30 22 6 16 -8 17 -39 4 -13 -6 -15 -9 -5 -9
13 -1 13 -2 0 -11 -8 -5 -10 -10 -4 -10 6 0 28 -16 48 -35 21 -19 42 -35 47
-35 5 0 9 -7 9 -15 0 -8 4 -15 9 -15 5 0 12 -8 16 -17 7 -20 35 -161 34 -171
-1 -4 -1 -17 0 -30 1 -23 2 -24 118 -21 l117 3 77 77 c90 90 145 121 299 166
11 3 6 10 -15 21 -36 20 -57 37 -139 112 -173 158 -205 208 -225 344 -6 43
-13 82 -16 86 -9 15 -127 90 -150 96 -19 5 -23 1 -28 -23z"/>
<path d="M2753 8209 c-39 -38 -54 -57 -40 -53 34 11 88 58 82 72 -2 6 2 12 10
12 16 0 29 16 17 24 -4 2 -35 -22 -69 -55z"/>
<path d="M2625 8210 c-3 -5 -1 -10 4 -10 6 0 11 5 11 10 0 6 -2 10 -4 10 -3 0
-8 -4 -11 -10z"/>
<path d="M3090 8173 c0 -6 -25 -38 -55 -72 -62 -69 -73 -92 -20 -41 44 43 90
108 81 117 -3 3 -6 2 -6 -4z"/>
<path d="M3114 8068 l-19 -23 23 19 c21 18 27 26 19 26 -2 0 -12 -10 -23 -22z"/>
<path d="M3760 8043 c-14 -15 -17 -21 -7 -13 28 21 33 2 6 -26 -21 -24 -22
-25 -3 -16 16 8 27 7 49 -8 16 -10 32 -17 37 -14 4 3 8 0 8 -6 0 -15 17 -3 30
20 8 15 2 24 -40 54 -28 20 -51 36 -53 35 -1 0 -13 -12 -27 -26z"/>
<path d="M3112 8038 c-7 -7 -16 -13 -20 -13 -11 0 -113 -88 -108 -93 8 -8 70
35 111 77 21 23 37 41 34 41 -3 0 -11 -6 -17 -12z"/>
<path d="M2860 8019 c0 -5 5 -7 10 -4 6 3 10 8 10 11 0 2 -4 4 -10 4 -5 0 -10
-5 -10 -11z"/>
<path d="M2905 7990 c-3 -5 -2 -10 4 -10 5 0 13 5 16 10 3 6 2 10 -4 10 -5 0
-13 -4 -16 -10z"/>
<path d="M3380 7960 c14 -9 7 -14 -13 -11 -5 1 -5 -4 -2 -10 4 -6 -10 -28 -31
-50 -21 -21 -34 -39 -29 -38 6 0 29 23 53 50 40 47 46 69 19 69 -7 0 -6 -4 3
-10z"/>
<path d="M2242 7882 c-34 -10 -22 -27 15 -24 38 3 102 -31 155 -82 19 -19 49
-41 66 -50 30 -16 431 -313 458 -340 7 -8 10 -17 6 -20 -3 -4 1 -4 11 0 10 3
17 1 17 -5 0 -6 8 -11 19 -11 33 0 63 -66 35 -77 -11 -4 -12 -9 -3 -19 6 -7 7
-19 3 -25 -5 -9 -2 -10 10 -6 19 8 56 -12 56 -29 0 -6 -6 -17 -14 -23 -11 -10
-16 -8 -21 9 -3 11 -10 18 -15 15 -4 -3 -11 2 -14 11 -4 10 -12 14 -23 10 -14
-6 -14 -3 3 15 l19 23 -23 -16 c-28 -19 -66 -69 -93 -120 -23 -45 -23 -48 -4
-48 8 0 15 -4 15 -9 0 -14 55 -51 82 -56 13 -3 25 -10 27 -16 4 -13 60 -64 69
-64 6 0 34 -22 66 -50 6 -6 27 -22 46 -35 19 -13 42 -31 50 -40 16 -16 135
-110 159 -125 10 -6 12 -4 6 4 -4 7 4 5 19 -4 14 -9 23 -22 19 -28 -3 -5 -1
-7 4 -4 6 4 18 -4 26 -16 16 -24 47 -32 47 -13 0 6 4 6 8 -2 6 -9 12 -6 20 13
6 14 18 25 26 25 16 0 66 60 66 79 0 7 5 9 10 6 6 -3 10 -1 10 6 0 7 6 20 14
28 12 14 -11 35 -207 186 -139 107 -215 171 -204 173 19 4 32 42 23 70 -4 10
-46 50 -94 88 -48 38 -125 102 -172 142 -98 85 -142 112 -87 54 62 -64 25 -61
-55 5 -62 50 -68 58 -49 61 12 2 32 -5 44 -15 18 -15 19 -15 9 -1 -14 18 -152
124 -257 197 -33 23 -86 60 -117 82 -36 25 -71 42 -93 43 -20 2 -39 7 -43 11
-4 4 4 4 18 1 24 -7 24 -6 6 8 -20 17 -127 21 -174 8z m269 -71 c13 -11 21
-23 16 -27 -10 -10 -57 16 -57 33 0 18 14 16 41 -6z m74 -63 c10 -15 11 -24 5
-26 -14 -5 -51 28 -44 39 9 15 22 10 39 -13z m126 -76 c12 -11 18 -21 13 -24
-15 -9 -54 10 -54 27 0 20 13 19 41 -3z m399 -327 c11 -13 10 -14 -4 -9 -9 3
-16 10 -16 15 0 13 6 11 20 -6z m120 -109 c0 -5 -8 -3 -17 5 -74 62 -91 78
-86 83 7 6 103 -76 103 -88z m-110 -80 c0 -3 -4 -8 -10 -11 -5 -3 -10 -1 -10
4 0 6 5 11 10 11 6 0 10 -2 10 -4z m50 -7 c13 -9 12 -10 -2 -5 -10 3 -24 -2
-33 -10 -8 -9 -15 -12 -15 -7 0 10 21 33 30 33 3 0 12 -5 20 -11z m16 -38 c8
7 14 7 14 1 0 -5 -7 -15 -15 -22 -8 -7 -15 -10 -15 -7 0 3 -2 11 -3 19 -2 7
-2 9 1 5 2 -4 10 -3 18 4z m168 -146 c-7 -16 -24 -21 -24 -6 0 8 7 13 27 20 1
1 0 -6 -3 -14z"/>
<path d="M3450 7875 c-7 -8 -17 -12 -23 -8 -6 4 -7 1 -3 -6 6 -9 13 -8 27 5
10 9 19 19 19 21 0 7 -8 2 -20 -12z"/>
<path d="M3410 7842 c0 -7 -4 -11 -8 -9 -5 1 -34 -22 -66 -50 -32 -29 -51 -53
-42 -53 20 0 133 106 124 116 -5 4 -8 2 -8 -4z"/>
<path d="M4061 7826 l-23 -25 23 6 24 6 -20 -23 c-18 -22 -19 -23 -2 -17 23 9
79 -23 73 -40 -12 -30 27 -2 47 34 4 6 -14 26 -43 47 -28 20 -52 36 -53 36 -2
0 -14 -11 -26 -24z"/>
<path d="M2093 7815 c-15 -13 -23 -25 -17 -25 6 0 21 11 34 25 30 32 19 32
-17 0z"/>
<path d="M3160 7819 c0 -5 5 -7 10 -4 6 3 10 8 10 11 0 2 -4 4 -10 4 -5 0 -10
-5 -10 -11z"/>
<path d="M3225 7800 c-16 -17 -16 -20 -3 -15 9 4 19 13 22 21 7 19 2 18 -19
-6z"/>
<path d="M3675 7730 c-10 -11 -14 -20 -9 -20 5 0 15 9 22 20 7 11 11 20 9 20
-2 0 -12 -9 -22 -20z"/>
<path d="M3640 7685 c-7 -9 -11 -17 -9 -20 3 -2 10 5 17 15 14 24 10 26 -8 5z"/>
<path d="M3738 7677 c-7 -12 -12 -26 -13 -32 0 -5 -4 -10 -10 -10 -5 0 -39
-31 -75 -69 -50 -53 -58 -65 -35 -53 27 14 88 73 153 148 20 22 21 27 8 32
-10 4 -20 -2 -28 -16z m22 -1 c0 -2 -8 -10 -17 -17 -16 -13 -17 -12 -4 4 13
16 21 21 21 13z"/>
<path d="M4365 7610 c-11 -12 -13 -20 -6 -20 8 0 9 -5 2 -19 -9 -16 -8 -18 8
-14 22 6 70 -25 71 -46 0 -11 3 -11 16 -1 38 32 35 46 -13 84 -25 20 -49 36
-53 36 -4 0 -15 -9 -25 -20z"/>
<path d="M3465 7600 c-3 -5 -1 -10 4 -10 6 0 11 5 11 10 0 6 -2 10 -4 10 -3 0
-8 -4 -11 -10z"/>
<path d="M3525 7580 c-10 -11 -13 -20 -8 -20 13 0 38 29 31 35 -3 3 -13 -4
-23 -15z"/>
<path d="M3545 7549 c-4 -6 -5 -12 -2 -15 2 -3 7 2 10 11 7 17 1 20 -8 4z"/>
<path d="M4024 7459 c-9 -10 -13 -23 -9 -30 5 -7 3 -10 -4 -8 -10 4 -141 -116
-141 -128 0 -22 115 78 170 146 20 26 25 38 15 38 -8 0 -22 -8 -31 -18z"/>
<path d="M3825 7380 c-28 -30 -25 -41 6 -17 13 10 33 47 26 47 -2 0 -16 -13
-32 -30z"/>
<path d="M4655 7390 c-17 -19 -17 -20 0 -20 17 0 17 -1 -1 -21 -19 -22 -19
-22 2 -11 18 9 27 8 48 -9 14 -11 29 -21 33 -22 4 -1 7 -5 6 -9 -5 -14 10 -8
23 10 21 27 17 36 -31 70 -54 38 -56 38 -80 12z"/>
<path d="M4316 7245 c-15 -19 -24 -40 -20 -47 4 -6 3 -8 -3 -5 -5 3 -38 -23
-73 -58 -44 -44 -57 -62 -42 -58 32 8 168 156 168 182 0 11 -1 21 -2 21 -1 0
-14 -16 -28 -35z m24 1 c0 -2 -8 -10 -17 -17 -16 -13 -17 -12 -4 4 13 16 21
21 21 13z"/>
<path d="M10565 7239 c-11 -16 0 -21 30 -13 20 5 23 9 13 15 -18 12 -36 11
-43 -2z"/>
<path d="M10630 7240 c0 -13 40 -13 60 0 11 7 5 10 -22 10 -21 0 -38 -4 -38
-10z"/>
<path d="M4135 7180 c-39 -40 -43 -62 -8 -40 14 9 57 80 49 80 -1 0 -19 -18
-41 -40z"/>
<path d="M4966 7181 c-13 -15 -14 -20 -4 -23 10 -4 10 -8 -2 -23 -11 -13 -11
-16 -2 -11 9 5 25 0 43 -13 15 -11 32 -21 38 -21 5 0 11 -5 13 -11 2 -6 10 1
18 16 16 29 17 27 -61 85 -26 19 -27 19 -43 1z"/>
<path d="M4547 6961 c-53 -62 -78 -97 -66 -94 37 10 172 174 156 189 -2 2 -42
-41 -90 -95z"/>
<path d="M4446 6984 c-59 -66 -70 -90 -25 -55 21 16 94 121 85 121 -1 0 -29
-29 -60 -66z"/>
<path d="M5273 6968 c-16 -25 -8 -53 22 -72 17 -11 36 -19 43 -18 6 2 12 -2
12 -9 0 -8 4 -8 15 1 28 23 22 32 -67 98 -13 10 -18 10 -25 0z"/>
<path d="M4792 6828 c-27 -35 -63 -78 -81 -95 -17 -18 -25 -33 -18 -33 7 0 25
12 39 28 25 26 120 162 113 162 -2 0 -25 -28 -53 -62z"/>
<path d="M4837 6739 c-42 -49 -72 -89 -65 -89 15 0 141 130 134 138 -3 3 -1
11 6 19 6 7 9 15 7 17 -2 2 -39 -36 -82 -85z m63 47 c0 -2 -8 -10 -17 -17 -16
-13 -17 -12 -4 4 13 16 21 21 21 13z"/>
<path d="M11535 6760 c-54 -56 -100 -54 -70 3 8 15 12 27 9 27 -7 0 -64 -30
-64 -33 0 -2 22 -27 50 -56 31 -34 54 -51 64 -48 13 5 61 135 53 143 -2 2 -21
-14 -42 -36z"/>
<path d="M5563 6741 c-10 -15 -10 -20 0 -24 9 -3 8 -9 -3 -22 -10 -13 -11 -16
-2 -11 13 8 83 -21 90 -37 5 -11 32 13 32 28 0 10 -91 85 -103 85 -1 0 -8 -9
-14 -19z"/>
<path d="M5062 6590 c-45 -55 -78 -100 -73 -100 20 0 109 98 135 148 14 28 25
52 24 52 -2 -1 -40 -46 -86 -100z"/>
<path d="M5144 6540 c-37 -44 -71 -80 -76 -80 -4 0 -8 -4 -8 -10 0 -5 4 -10 9
-10 11 0 126 118 127 131 1 5 2 14 3 20 0 5 5 8 9 5 5 -3 9 1 9 9 0 8 -1 15
-3 15 -1 0 -32 -36 -70 -80z m46 26 c0 -2 -8 -10 -17 -17 -16 -13 -17 -12 -4
4 13 16 21 21 21 13z"/>
<path d="M5862 6528 c-17 -17 -15 -28 5 -28 13 0 14 -3 5 -12 -14 -14 -16 -32
-2 -23 5 3 20 0 32 -7 13 -7 29 -11 36 -10 6 2 12 -5 12 -15 1 -17 2 -17 15 1
8 11 15 23 15 27 0 7 -93 79 -102 79 -2 0 -9 -5 -16 -12z"/>
<path d="M5425 6450 c3 -6 2 -10 -3 -10 -9 0 -118 -127 -136 -159 -17 -28 43
21 79 65 20 24 41 49 48 56 34 37 38 45 22 52 -9 3 -13 2 -10 -4z"/>
<path d="M12779 6437 c-9 -12 -20 -33 -24 -47 -10 -32 -34 -60 -63 -71 -22 -9
-22 -9 -5 -36 10 -16 23 -31 30 -36 6 -4 22 -28 34 -53 45 -89 49 -82 49 100
0 91 -1 166 -2 166 -2 0 -10 -11 -19 -23z"/>
<path d="M5481 6376 c-14 -15 -20 -30 -16 -37 5 -7 4 -10 -2 -6 -11 7 -109
-100 -101 -109 12 -11 141 132 143 158 2 23 3 23 -24 -6z"/>
<path d="M12555 6330 c27 -27 49 -50 50 -50 0 0 1 14 1 30 1 17 -3 30 -8 30
-5 0 -21 9 -35 20 -52 41 -57 20 -8 -30z"/>
<path d="M12625 6320 c3 -5 8 -10 11 -10 2 0 4 5 4 10 0 6 -5 10 -11 10 -5 0
-7 -4 -4 -10z"/>
<path d="M6160 6304 c-11 -12 -11 -15 1 -12 8 2 14 -4 14 -12 0 -21 42 -53 60
-46 10 3 15 -1 15 -12 1 -15 2 -15 15 2 18 24 19 36 4 36 -6 0 -27 14 -46 30
-39 34 -46 36 -63 14z"/>
<path d="M5700 6225 c-7 -8 -10 -15 -7 -15 3 0 -8 -14 -25 -32 -41 -44 -91
-118 -79 -118 9 0 50 47 120 138 22 28 28 42 18 42 -8 0 -20 -7 -27 -15z"/>
<path d="M5753 6137 c-83 -101 -97 -136 -24 -58 33 36 58 68 55 73 -3 4 -2 8
3 8 4 0 13 11 20 25 6 14 10 25 8 25 -1 0 -29 -33 -62 -73z"/>
<path d="M11566 6120 c-4 -21 -3 -105 3 -157 2 -26 21 -12 21 16 0 16 3 36 6
45 12 32 24 3 24 -59 0 -37 5 -67 12 -71 7 -4 8 -3 4 5 -4 6 0 14 8 17 24 9
19 46 -14 109 -16 31 -30 62 -30 69 0 7 -6 21 -14 32 -14 18 -15 18 -20 -6z"/>
<path d="M6464 6099 c-3 -6 -1 -15 7 -19 10 -7 10 -12 -2 -26 -8 -10 -9 -15
-3 -11 7 4 17 0 24 -8 8 -9 21 -13 36 -9 19 5 23 3 18 -9 -8 -23 14 -30 25 -8
9 16 3 25 -44 60 -35 26 -56 37 -61 30z"/>
<path d="M6020 6030 c0 -7 -3 -10 -6 -7 -8 7 -44 -36 -44 -52 0 -6 -4 -11 -9
-11 -10 0 -75 -100 -69 -105 4 -4 97 108 123 148 10 15 15 30 11 34 -3 3 -6 0
-6 -7z"/>
<path d="M6051 5927 c-23 -28 -51 -68 -62 -87 -16 -27 -9 -22 34 24 31 33 55
62 54 65 -1 3 4 16 11 29 20 36 8 26 -37 -31z"/>
<path d="M6759 5868 c-11 -20 -11 -22 3 -10 20 16 35 -2 19 -21 -7 -9 -2 -16
20 -26 17 -7 33 -10 36 -7 3 3 12 1 19 -5 7 -6 15 -6 18 -1 5 8 -20 31 -91 84
-8 6 -16 2 -24 -14z"/>
<path d="M6285 5812 c2 -3 -15 -28 -38 -56 -24 -28 -49 -60 -57 -71 l-15 -20
24 20 c40 34 111 132 95 132 -8 0 -12 -2 -9 -5z"/>
<path d="M6349 5743 c-13 -16 -12 -17 4 -4 9 7 17 15 17 17 0 8 -8 3 -21 -13z"/>
<path d="M6309 5687 c-34 -43 -45 -62 -31 -53 17 10 75 86 65 86 -4 0 -20 -15
-34 -33z"/>
<path d="M7055 5650 c-3 -5 1 -10 10 -10 11 0 15 -5 11 -15 -6 -17 27 -38 62
-40 33 -1 26 17 -19 48 -42 29 -54 32 -64 17z"/>
<path d="M5555 5288 c6 -16 4 -20 -8 -15 -17 6 -43 -20 -77 -78 -21 -36 -22
-38 -4 -22 12 9 25 14 30 10 5 -5 6 -4 2 1 -5 5 5 17 20 26 16 10 38 34 50 53
17 30 18 36 5 41 -23 9 -25 8 -18 -16z"/>
<path d="M5440 5280 c-6 -11 -8 -20 -6 -20 3 0 10 9 16 20 6 11 8 20 6 20 -3
0 -10 -9 -16 -20z"/>
</g>
</svg>
