<svg width="248" height="25" viewBox="0 0 248 25" fill="none" xmlns="http://www.w3.org/2000/svg">
<path d="M19.8 6.4H14V25H6V6.4H0.2V0H19.8V6.4ZM22 25V0H30V25H22ZM41.3522 25H32.9922L34.5122 0H44.9522L48.0722 12.72H48.3522L51.4722 0H61.9122L63.4322 25H55.0722L54.5922 12.88H54.3122L51.2722 25H45.1522L42.0722 12.88H41.8322L41.3522 25ZM66.4141 25V0H79.3741C81.7741 0 83.4807 0.466666 84.4941 1.4C85.5341 2.33333 86.0541 3.69333 86.0541 5.48C86.0541 7.26667 85.7207 8.65333 85.0541 9.64C84.4141 10.6 83.5474 11.2267 82.4541 11.52V11.76C85.6807 12.32 87.2941 14.52 87.2941 18.36C87.2941 20.36 86.7607 21.9733 85.6941 23.2C84.6274 24.4 82.9874 25 80.7741 25H66.4141ZM77.5341 15.04H74.4141V19.12H77.4941C78.6141 19.12 79.1741 18.44 79.1741 17.08C79.1741 15.72 78.6274 15.04 77.5341 15.04ZM76.9341 5.48H74.4141V9.2H76.8941C77.9074 9.2 78.4141 8.58667 78.4141 7.36C78.4141 6.10667 77.9207 5.48 76.9341 5.48ZM106.086 15.56H98.0859V18.6H107.886V25H90.0859V0H107.686L106.686 6.4H98.0859V9.76H106.086V15.56ZM133.097 25H124.297L121.017 17.56H119.297V25H111.297V0H123.897C129.63 0 132.497 2.92 132.497 8.76C132.497 12.76 131.257 15.4 128.777 16.68L133.097 25ZM119.297 6.4V11.4H121.137C122.097 11.4 122.79 11.3067 123.217 11.12C123.67 10.9067 123.897 10.44 123.897 9.72V8.08C123.897 7.36 123.67 6.90667 123.217 6.72C122.79 6.50667 122.097 6.4 121.137 6.4H119.297ZM157.706 25H148.906L145.626 17.56H143.906V25H135.906V0H148.506C154.24 0 157.106 2.92 157.106 8.76C157.106 12.76 155.866 15.4 153.386 16.68L157.706 25ZM143.906 6.4V11.4H145.746C146.706 11.4 147.4 11.3067 147.826 11.12C148.28 10.9067 148.506 10.44 148.506 9.72V8.08C148.506 7.36 148.28 6.90667 147.826 6.72C147.4 6.50667 146.706 6.4 145.746 6.4H143.906Z" fill="black"/>
<path d="M162.02 2.6H162.932V11H162.02V2.6ZM172.113 2.6H173.001L177.381 9.512H177.405V2.6H178.269V11H177.381L173.001 4.088H172.977V11H172.113V2.6ZM186.727 2.6H187.675L190.171 9.908H190.195L192.691 2.6H193.639L190.675 11H189.691L186.727 2.6ZM201.803 9.68V3.92L203.123 2.6H206.915L208.235 3.92V9.68L206.915 11H203.123L201.803 9.68ZM206.507 10.184L207.323 9.38V4.22L206.507 3.416H203.531L202.715 4.22V9.38L203.531 10.184H206.507ZM217.293 2.6H218.205V11H217.293V2.6ZM227.266 9.68V3.92L228.586 2.6H232.186L233.458 3.872V4.64H232.546V4.172L231.778 3.416H228.994L228.178 4.22V9.38L228.994 10.184H231.778L232.546 9.428V8.96H233.458V9.728L232.186 11H228.586L227.266 9.68ZM242.156 2.6H247.58V3.416H243.068V6.368H247.232V7.184H243.068V10.184H247.58V11H242.156V2.6Z" fill="black"/>
</svg>
